<?xml version="1.0" encoding="UTF-8"?>
<!DOCTYPE svg PUBLIC "-//W3C//DTD SVG 1.1//EN" "http://www.w3.org/Graphics/SVG/1.1/DTD/svg11.dtd">
<!-- Creator: CorelDRAW -->
<svg xmlns="http://www.w3.org/2000/svg" xml:space="preserve" width="299px" height="114px" style="shape-rendering:geometricPrecision; text-rendering:geometricPrecision; image-rendering:optimizeQuality; fill-rule:evenodd; clip-rule:evenodd"
viewBox="0 0 283.121 107.952"
 xmlns:xlink="http://www.w3.org/1999/xlink"
 version="1.1"
 enable-background="new 0 0 651.97 935.43">
 <defs>
  <style type="text/css">
   <![CDATA[
    .fil0 {fill:#ED1C24}
   ]]>
  </style>
 </defs>
 <g id="Layer_x0020_1">
  <metadata id="CorelCorpID_0Corel-Layer"/>
  <g id="_56105328">
   <g>
    <path id="_92483800" class="fil0" d="M49.3295 84.9409l0 -20.7706 3.65667 0 9.15641 12.5569 8.95845 -12.5569 3.62254 0 0 20.7706 -4.18875 0 0 -12.8339c0,-0.245383 0.0129338,-0.559387 0.0445498,-0.944527 0.0326938,-0.377595 0.0675432,-0.798662 0.125745,-1.27111 -0.258317,0.535316 -0.467772,0.978658 -0.649923,1.32248 -0.184307,0.346338 -0.349213,0.635553 -0.502981,0.856146l-7.30005 10.3797 -0.901773 0.000359272 -7.31227 -10.4171c-0.266939,-0.395918 -0.509448,-0.763813 -0.691958,-1.10764 -0.186822,-0.349572 -0.344542,-0.685851 -0.467772,-1.01351 0.0344901,0.428252 0.0675432,0.82417 0.0862253,1.17662 0.015808,0.359272 0.0215563,0.695551 0.0215563,1.01997l0 12.8339 -3.65667 0 0 -0.00143709z"/>
    <polygon id="_93769784" class="fil0" points="96.1208,95.6979 96.1208,106.184 92.6951,106.184 92.6951,95.6979 85.934,95.6979 85.934,93.4133 102.914,93.4133 102.914,95.6979 "/>
    <polygon id="_92490512" class="fil0" points="105.322,106.184 105.322,93.4133 120.405,93.4133 120.405,95.5811 108.745,95.5811 108.745,98.442 115.553,98.442 115.553,100.613 108.745,100.613 108.745,103.777 120.547,103.777 120.547,106.184 "/>
    <path id="_92490752" class="fil0" d="M139.237 95.6979l-9.24264 0 0 8.0786 9.24264 0 0 -2.74017 3.42638 0.61687 0 1.51721c0,1.16404 -0.249694,1.95803 -0.754472,2.38557 -0.512681,0.415319 -1.47338,0.629445 -2.8907,0.629445l-8.80109 -0.000359272c-1.43206,0 -2.39814,-0.214845 -2.9004,-0.629445 -0.497592,-0.427534 -0.751957,-1.22153 -0.751957,-2.38557l0 -6.73492c0,-1.16404 0.254365,-1.95157 0.751957,-2.37874 0.502263,-0.428252 1.46835,-0.642379 2.9004,-0.642379l8.80073 -0.000359272c1.41769,0 2.37802,0.214486 2.8907,0.642379 0.504777,0.427534 0.754472,1.21506 0.754472,2.37874l0 1.20823 -3.42638 0.469569 0.000359272 -2.41467z"/>
    <polygon id="_92516664" class="fil0" points="146.298,106.184 146.298,93.4133 149.722,93.4133 149.722,98.3666 160.434,98.3666 160.434,93.4133 163.89,93.4133 163.89,106.184 160.434,106.184 160.434,100.689 149.722,100.689 149.722,106.184 "/>
    <path id="_93810896" class="fil0" d="M166.565 106.184l0 -12.7714 2.34102 0.000359272 10.3729 7.52855c0.352805,0.248976 0.664294,0.484658 0.931593,0.704533 0.270532,0.219515 0.522382,0.453402 0.742975,0.680462 -0.0564057,-0.718185 -0.0908959,-1.21506 -0.110297,-1.5208 -0.0161673,-0.298914 -0.0344901,-0.524897 -0.0344901,-0.688366l0 -6.70366 3.07717 -0.000359272 0 12.7714 -2.33455 0 -10.8198 -7.88674c-0.257598,-0.201192 -0.487532,-0.384062 -0.680102,-0.545016 -0.194726,-0.163469 -0.377595,-0.330171 -0.547531,-0.500107 0.0445498,0.402744 0.0847882,0.761657 0.110297,1.12093 0.0283825,0.352446 0.0344901,0.654235 0.0344901,0.906085l0 6.90485 -3.08363 0 0 -0.000718544z"/>
    <path id="_93757952" class="fil0" d="M186.31 96.4312c0,-1.16081 0.25185,-1.94833 0.75519,-2.37551 0.509807,-0.428612 1.45972,-0.642379 2.89573,-0.642379l10.8511 0c1.43206,0 2.39563,0.214126 2.89573,0.642379 0.516633,0.427175 0.75519,1.2147 0.75519,2.37551l0 6.73815c0,1.1644 -0.239275,1.95803 -0.75519,2.38557 -0.500107,0.415319 -1.4626,0.629445 -2.89573,0.629445l-10.8511 0c-1.43565,0 -2.38593,-0.214845 -2.89573,-0.629804 -0.5037,-0.427534 -0.75519,-1.22117 -0.75519,-2.38521l0 -6.73815zm3.43428 7.34855l11.3038 0 0 -8.08219 -11.3038 0.000359272 0 8.08183z"/>
    <polygon id="_93913288" class="fil0" points="207.355,106.184 207.355,93.4133 210.788,93.4133 210.788,103.777 221.844,103.777 221.844,106.184 "/>
    <path id="_93799288" class="fil0" d="M223.824 96.4312c0,-1.16081 0.25185,-1.94833 0.75519,-2.37551 0.500825,-0.428612 1.46368,-0.642379 2.90472,-0.642379l10.8353 0c1.43134,0 2.39814,0.214126 2.90472,0.642379 0.493281,0.427175 0.75519,1.2147 0.75519,2.37551l0 6.73815c0,1.1644 -0.260832,1.95803 -0.75519,2.38557 -0.507292,0.415319 -1.47338,0.629445 -2.90472,0.629445l-10.8357 0c-1.44104,0 -2.40389,-0.214845 -2.90472,-0.629804 -0.50334,-0.427534 -0.75519,-1.22117 -0.75519,-2.38521l0.000359272 -6.73815zm3.43572 7.34855l11.298 0 0 -8.08219 -11.298 0.000359272 0 8.08183z"/>
    <path id="_93768896" class="fil0" d="M258.481 95.6979l-10.7031 0 0 8.0786 10.7031 0 0 -2.83466 -5.60788 0 0 -2.17503 8.94085 0 0 4.4036c0,1.16404 -0.254365,1.95803 -0.758424,2.38557 -0.49364,0.415319 -1.4723,0.629445 -2.89897,0.629445l-10.1555 -0.000359272c-1.42595,0 -2.40353,-0.214845 -2.90436,-0.629445 -0.509807,-0.427534 -0.75519,-1.22153 -0.75519,-2.38557l0 -6.73492c0,-1.16404 0.245383,-1.95157 0.75519,-2.37874 0.500825,-0.428252 1.47948,-0.642379 2.90436,-0.642379l10.1555 -0.000359272c1.41697,0 2.37874,0.208019 2.88927,0.629804 0.513759,0.418552 0.768124,1.17051 0.768124,2.27168l0 0.283466 -3.33369 0.522382 0 -1.42308 0.000718544 0z"/>
    <polygon id="_93391080" class="fil0" points="270.18,106.184 270.18,100.469 262.513,93.4133 267.083,93.4133 272.153,98.3166 277.22,93.4133 281.254,93.4133 273.629,100.394 273.629,106.184 "/>
    <path id="_92501056" class="fil0" d="M41.0185 67.8112l-12.7305 0 0 4.4539 12.1272 0c1.89193,0 3.17669,0.345979 3.84709,1.04476 0.664294,0.691599 1.00237,1.98175 1.00237,3.86757l0 2.84795c0,1.88869 -0.338075,3.18495 -1.00237,3.87152 -0.670402,0.699144 -1.95552,1.04512 -3.84709,1.04512l-12.0144 0c-1.90091,0 -3.18639,-0.346338 -3.84709,-1.04512 -0.67615,-0.686569 -1.01207,-1.98282 -1.01207,-3.87152l0 -0.572321 3.99511 -0.881295 0 2.45455 13.7325 -0.000359272 0 -4.72659 -12.1147 0.000359272c-1.89193,0 -3.15836,-0.352446 -3.82553,-1.04584 -0.657827,-0.691599 -0.988717,-1.98821 -0.988717,-3.87044l0 -2.30401c0,-1.88115 0.33089,-3.17201 0.988717,-3.86397 0.667169,-0.699144 1.9336,-1.04836 3.82553,-1.04836l11.0318 -0.000359272c1.83624,0 3.09046,0.330171 3.78314,1.00381 0.689084,0.673276 1.04333,1.85636 1.04333,3.55895l0 0.437953 -3.99547 1.00093 0 -2.35719 0.00107782 0z"/>
    <path id="_93763176" class="fil0" d="M105.124 84.9377l0 -20.771 16.6224 0c1.55277,0 2.66472,0.323704 3.36099,0.959616 0.689084,0.628726 1.03686,1.65553 1.03686,3.07142l0 4.87137c0,1.40727 -0.347776,2.42401 -1.03686,3.06531 -0.697347,0.649205 -1.80858,0.96285 -3.36099,0.96285l-2.53287 0.000359272 8.966 7.83932 -6.48163 0 -7.84435 -7.83932 -4.28252 0 0 7.83932 -4.44707 0 0 0.000718544zm14.6177 -17.1739l-10.1706 0 0 5.7753 10.1706 0c0.781058,0 1.32859,-0.116763 1.60846,-0.362146 0.289214,-0.232808 0.434001,-0.673276 0.434001,-1.28404l0 -2.4991c0,-0.604655 -0.144787,-1.02572 -0.434001,-1.26464 -0.279873,-0.245383 -0.827404,-0.36538 -1.60846,-0.36538z"/>
    <polygon id="_56556264" class="fil0" points="143.437,67.8838 143.437,84.9409 138.923,84.9409 138.923,67.8838 129.996,67.8838 129.996,64.1703 152.39,64.1703 152.39,67.8838 "/>
    <polygon id="_56490128" class="fil0" points="172.362,84.9409 172.362,64.1703 176.881,64.1703 176.881,72.227 191.012,72.227 191.012,64.1703 195.568,64.1703 195.568,84.9409 191.012,84.9409 191.012,76.0033 176.881,76.0033 176.881,84.9409 "/>
    <path id="_92528144" class="fil0" d="M201.41 69.0794c0,-1.88474 0.333045,-3.17201 0.99734,-3.86433 0.654235,-0.695551 1.9354,-1.04476 3.82409,-1.04476l14.3062 0c1.88762,0 3.1598,0.349213 3.82625,1.04476 0.661061,0.691599 0.991232,1.97959 0.991232,3.86433l0 10.9459c0,1.8948 -0.330171,3.19752 -0.991232,3.88337 -0.66645,0.686928 -1.93827,1.02896 -3.82625,1.02896l-14.3062 0c-1.88869,0 -3.17022,-0.343105 -3.82409,-1.02896 -0.664294,-0.686569 -0.99734,-1.98929 -0.99734,-3.88337l0 -10.9459zm4.52503 11.9533l14.9238 0 0 -13.1486 -14.9238 -0.000359272 0 13.149z"/>
    <path id="_56093192" class="fil0" d="M230.293 84.9409l0 -20.7706 3.65092 0 9.15821 12.5569 8.95594 -12.5569 3.62613 0 0 20.7706 -4.19199 0 0 -12.8339c0,-0.245383 0.0129338,-0.559387 0.0564057,-0.944527 0.0247898,-0.377595 0.0693395,-0.798662 0.11353,-1.27111 -0.242149,0.535316 -0.462743,0.978658 -0.642379,1.32248 -0.18287,0.346338 -0.349213,0.635553 -0.500107,0.856146l-7.304 10.3797 -0.89351 0.000359272 -7.327 -10.4171c-0.271251,-0.395918 -0.494359,-0.763813 -0.686569,-1.10764 -0.185384,-0.349572 -0.349213,-0.685851 -0.472443,-1.01351 0.044909,0.428252 0.0635912,0.82417 0.0829919,1.17662 0.0247898,0.359272 0.0247898,0.695551 0.0247898,1.01997l0 12.8339 -3.65092 0 0 -0.00143709z"/>
    <polygon id="_91750920" class="fil0" points="261.456,84.9409 261.456,64.1703 281.352,64.1703 281.352,67.7077 265.969,67.7077 265.969,72.3502 274.954,72.3502 274.954,75.8772 265.969,75.8772 265.969,81.0328 281.531,81.0328 281.531,84.9409 "/>
    <path id="_92500536" class="fil0" d="M0.184307 56.7873c-0.0862253,0.0650283 -0.157002,0.117482 -0.184307,0.148739l0.184307 -0.148739z"/>
    <path id="_56093144" class="fil0" d="M283.121 40.7623l-210.835 -40.7623 -72.0998 56.7887c1.23769,-0.872672 7.8792,-4.41474 16.7288,-9.02707l0 58.4231 3.95415 0.000359272 0 -60.4792c22.0748,-11.4414 53.7198,-27.4678 53.7198,-27.4678l208.532 22.5242z"/>
    <rect id="_56420808" class="fil0" x="24.0355" y="104.566" width="48.9968" height="1.61809"/>
    <rect id="_92930352" class="fil0" x="24.0355" y="101.407" width="48.9968" height="1.6117"/>
    <rect id="_55279296" class="fil0" x="24.0355" y="98.2474" width="48.9968" height="1.61078"/>
    <rect id="_92508312" class="fil0" x="24.0355" y="95.0815" width="48.9968" height="1.60439"/>
    <rect id="_92490592" class="fil0" x="24.0355" y="91.915" width="48.9968" height="1.598"/>
    <rect id="_92505288" class="fil0" x="24.0355" y="88.7497" width="48.9968" height="1.60439"/>
    <path id="_56396584" class="fil0" d="M80.6606 107.952c-5.50728,-12.3493 -2.51742,-46.9289 18.6937,-49.0992 1.3638,2.07552 -0.418552,6.00955 -0.418552,6.00955l0 20.3057 -13.4343 -0.000359272 0 -3.72673 9.00372 0.000359272 0 -14.3572c-5.45267,1.61744 -15.1016,9.03821 -13.8446,40.8679z"/>
    <path id="_55271376" class="fil0" d="M43.5388 53.6918l-1.79277 0c-0.867283,0 -1.57218,-0.268017 -2.17791,-0.815189 -0.432923,-0.418911 -0.725371,-0.896743 -0.879858,-1.42667 -0.561902,-2.22821 -1.64151,-3.33261 -3.26183,-3.31105 -1.23015,0.0129338 -2.09707,0.679743 -2.61083,1.99576l4.25019 -0.000359272 0 2.34353c0,1.47876 -0.572321,2.73622 -1.71984,3.77344 -1.13422,1.05698 -2.53035,1.58978 -4.14421,1.58978 -1.61744,0 -2.99022,-0.532082 -4.1478,-1.58978 -1.1468,-1.03722 -1.72343,-2.29467 -1.72343,-3.79284 -0.0265861,-0.478191 -0.0427534,-1.23805 -0.0908959,-2.32413l2.32413 0c0,0.322986 0,0.781058 0.0215563,1.33506 0.0298196,0.553639 0.0492203,0.870157 0.0492203,1.00848 0,1.0056 0.402385,1.84271 1.22117,2.47179 0.703455,0.550405 1.482,0.811237 2.32737,0.811237 0.905007,0 1.67852,-0.260832 2.36509,-0.811237 0.796147,-0.629804 1.19638,-1.46691 1.19638,-2.51526l-0.0265861 -0.437234 -4.71078 0c0,-1.92821 0.490047,-3.38758 1.45685,-4.4309 0.953868,-0.98728 2.2397,-1.48559 3.85391,-1.48559 1.7493,0 3.12998,0.591721 4.0993,1.7687 0.509807,0.648127 0.958179,1.57792 1.32536,2.78077 0.270173,0.820218 0.876265,1.21506 1.80822,1.21506l0.988717 0 0 1.84666 -0.000718544 0zm-12.6036 7.47646l-2.13013 0 0 -1.91995 2.13013 -0.000359272 0 1.92031zm3.21297 0l-2.12797 0 0 -1.91995 2.12797 -0.000359272 0 1.92031z"/>
    <path id="_92778464" class="fil0" d="M55.0822 53.6918l-12.1398 0 0 -1.86606 9.75137 0c-0.440468,-2.24186 -1.73097,-3.36746 -3.832,-3.36746 -1.35338,0 -2.33311,0.209456 -2.94244,0.648127l-0.914707 -1.56104c0.875906,-0.667169 2.19372,-0.985124 3.91786,-0.985124 2.14953,0 3.79104,0.775309 4.87389,2.31371 0.87375,1.26033 1.28584,2.85909 1.28584,4.81784m-4.71114 2.89106l-2.13013 0 0 -1.92426 2.13013 0 0 1.92426z"/>
    <path id="_92780200" class="fil0" d="M68.9016 53.69l-3.18315 0c-0.68118,2.36221 -2.69849,3.92146 -5.50728,4.12983 -0.328734,-0.384062 -0.832434,-0.915066 -1.44104,-1.57792 2.01085,0 3.75727,-0.973987 4.46719,-2.55191l-1.5499 0c-2.19228,0 -3.69583,-1.59229 -3.69583,-3.39692 0,-2.15276 1.85564,-3.58338 4.14241,-3.58338 2.41467,0 3.81296,1.17302 3.81296,3.00172l0 2.13336 2.95465 0.000359272 0 1.84486zm-5.30753 -1.84414c-0.0283825,-1.55277 -0.0283825,-2.41682 -0.0283825,-2.57131 0,-0.418552 -0.654594,-1.15686 -1.43206,-1.15686 -1.0153,0 -1.79852,0.815548 -1.79852,2.07875 0,0.907881 0.75519,1.64906 1.68966,1.64906l1.5693 -0.000359272 0 0.000718544z"/>
    <path id="_92504912" class="fil0" d="M73.8057 51.2204c0,1.52475 -1.05698,2.47215 -2.9834,2.47215l-2.34569 0 0 -1.84738 1.50355 0c0.86405,0 1.50966,-0.458072 1.50966,-1.30739 0,-1.18344 -0.0265861,-2.71143 -0.0459868,-4.56312 -0.0215563,-2.11827 -0.0427534,-3.65847 -0.0427534,-4.59042l2.32737 0c0.0129338,0.870517 0.0129338,2.50844 0.0348494,4.9285 0.0273047,2.05144 0.0423941,3.68649 0.0423941,4.90766z"/>
    <path id="_93364232" class="fil0" d="M87.638 53.69l-3.18639 0c-0.696988,2.36221 -2.70819,3.92146 -5.51339,4.12983 -0.339872,-0.384062 -0.832434,-0.915066 -1.44427,-1.57792 2.01695,0 3.76014,-0.973987 4.47007,-2.55191l-1.54954 0c-2.19515,0 -3.69763,-1.59229 -3.69763,-3.39692 0,-2.15276 1.85995,-3.58338 4.14205,-3.58338 2.42329,0 3.81583,1.17302 3.81583,3.00172l0 2.13336 2.96471 0.000359272 0 1.84486 -0.00143709 0zm-5.314 -1.84414c-0.0247898,-1.55277 -0.0247898,-2.41682 -0.0247898,-2.57131 0,-0.418552 -0.667528,-1.15686 -1.44212,-1.15686 -1.01818,0 -1.79852,0.815548 -1.79852,2.07875 0,0.907881 0.75519,1.64906 1.68499,1.64906l1.58044 -0.000359272 0 0.000718544z"/>
    <path id="_94422376" class="fil0" d="M97.8941 53.6918l-2.19084 0c-0.660702,0 -1.23554,-0.25185 -1.70582,-0.718904 -0.247179,-0.270532 -0.450168,-0.538549 -0.547531,-0.82417 -0.379032,0.937701 -1.54307,1.51828 -2.75131,1.54307l-3.49644 0 0 -1.84738 2.6076 0c0.421786,0 0.802614,-0.092333 1.15039,-0.298914 0.464539,-0.248616 0.683336,-0.589925 0.683336,-1.03039l-0.0344901 -3.77487 2.32269 0c0,0.713155 0.0265861,1.70295 0.0675432,2.97226 0,0.672917 0.21736,1.20284 0.690521,1.60523 0.369691,0.354242 0.769561,0.527412 1.21183,0.527412l1.99396 0 0 0.474958 0 0.89854 0 0.473162 -0.00143709 0zm-4.0993 -8.46589l-2.15276 0 0 -1.92067 2.15276 0 0 1.92067z"/>
    <path id="_93761312" class="fil0" d="M112.786 53.69l-15.2777 0 0 -1.8445 9.00408 0.000359272c-0.190774,-1.04979 -0.680462,-1.84846 -1.482,-2.44161 -0.728604,-0.528849 -1.63181,-0.792914 -2.67514,-0.792914 -1.13207,0 -2.2415,0.306818 -3.29992,0.89351l-0.86369 -1.56068 5.95709 -5.1516 1.6566 1.38787 -3.05094 2.56161c3.42853,0 5.44585,1.699 6.01925,5.10454l4.01235 0 0 1.84343z"/>
    <path id="_56427768" class="fil0" d="M118.813 51.2204c0,1.52475 -1.03686,2.47215 -2.96184,2.47215l-3.48746 0 0 -1.84738 2.61406 0c0.873391,0 1.52152,-0.456635 1.52152,-1.30739 0,-0.748005 0,-1.37673 -0.0362865,-1.88869 -0.0125745,-0.776747 -0.0125745,-1.42739 -0.0377236,-1.90881l2.34497 0c0.0233527,3.01034 0.0427534,4.49521 0.0427534,4.48012m-3.38363 -6.00667l-2.13336 0 0 -1.92714 2.13336 0 0 1.92714zm3.20543 0l-2.11935 0 0 -1.92714 2.11935 0 0 1.92714z"/>
    <path id="_56347896" class="fil0" d="M147.041 50.116c0,2.23 -1.54918,3.57656 -4.05331,3.57656 -1.17698,0 -2.13336,-0.306818 -2.88603,-0.895306 -0.707766,-0.555435 -1.12632,-1.25386 -1.28548,-2.09635l-1.145 0c-0.557231,0 -0.934826,0.158798 -1.13782,0.464898 -0.105626,0.205863 -0.169576,0.586692 -0.153769,1.11554l0.0959257 5.54285 -2.32234 0 -0.119997 -6.6027c-0.0247898,-1.6602 0.947401,-2.49407 2.90076,-2.49407l0.894947 0 1.19207 0c0.553998,-1.46368 1.81145,-2.18905 3.78314,-2.18905 1.30595,0 2.36042,0.387295 3.1501,1.14392 0.727886,0.683336 1.0868,1.49493 1.0868,2.43371m-2.33527 0.0183229c0,-0.593158 -0.192211,-1.08285 -0.560465,-1.44427 -0.336638,-0.323704 -0.761657,-0.476395 -1.24919,-0.476395 -0.463102,0 -0.867283,0.15305 -1.16907,0.476395 -0.33556,0.362506 -0.516993,0.835667 -0.516993,1.44427 0,0.593518 0.202989,1.08608 0.576273,1.44751 0.338075,0.323704 0.753394,0.473521 1.22296,0.473521 0.969316,0.000718544 1.69648,-0.699503 1.69648,-1.92103z"/>
    <path id="_56466712" class="fil0" d="M160.871 53.69l-3.19429 0c-0.688366,2.36221 -2.70029,3.92146 -5.5195,4.12983 -0.323704,-0.384062 -0.812315,-0.915066 -1.43565,-1.57792 2.01444,0 3.76445,-0.973987 4.47869,-2.55191l-1.55206 0c-2.19695,0 -3.69763,-1.59229 -3.69763,-3.39692 0,-2.15276 1.85349,-3.58338 4.13882,-3.58338 2.41036,0 3.79823,1.17302 3.79823,3.00172l0 2.13336 2.9834 0.000359272 0 1.84486zm-5.32765 -1.84414c-0.0183229,-1.55277 -0.0183229,-2.41682 -0.0183229,-2.57131 0,-0.418552 -0.666809,-1.15686 -1.43493,-1.15686 -1.02536,0 -1.79995,0.815548 -1.79995,2.07875 0,0.907881 0.75519,1.64906 1.68068,1.64906l1.57253 -0.000359272 0 0.000718544z"/>
    <rect id="_56417416" class="fil0" x="160.429" y="51.8493" width="5.11684" height="1.84263"/>
    <rect id="_56334696" class="fil0" x="165.118" y="51.8493" width="5.12232" height="1.84263"/>
    <rect id="_56330288" class="fil0" x="165.93" y="51.8493" width="5.11684" height="1.84263"/>
    <path id="_56294432" class="fil0" d="M185.885 53.69l-15.2536 0 0 -1.8445 4.1981 0.000359272c-0.47891,-0.624415 -0.733275,-1.29122 -0.733275,-2.03276 0,-0.515915 0.0944886,-0.995903 0.264424,-1.40799 -0.481425,0.168139 -0.915426,0.321908 -1.29949,0.469928 -0.151254,-0.276999 -0.481066,-0.888839 -0.994106,-1.83947 2.02917,-0.817344 3.94625,-1.23805 5.69626,-1.23805 2.59287,0 4.66982,0.912192 6.19313,2.72652 1.29266,1.49206 1.92857,3.2295 1.92857,5.16598m-6.33217 -3.87691c0,-0.630882 -0.174247,-1.12452 -0.532082,-1.52152 -0.308256,-0.328734 -0.686928,-0.492562 -1.11446,-0.492562 -0.415319,0 -0.752675,0.164187 -1.03542,0.492562 -0.336279,0.396637 -0.510167,0.890277 -0.510167,1.52152 0,0.628008 0.173888,1.14069 0.510167,1.49817 0.311848,0.344542 0.686928,0.516274 1.10476,0.516274 0.916144,0 1.57721,-0.725371 1.57721,-2.01444m3.65631 2.01444c-0.248976,-0.969676 -0.777824,-1.82367 -1.59229,-2.56808 0.0474239,0.18287 0.0596392,0.379032 0.0596392,0.589925 0,0.782495 -0.164187,1.43062 -0.560465,1.97815l2.09312 0z"/>
    <path id="_56460176" class="fil0" d="M216.031 52.2098c-0.157002,0.916144 -0.919378,1.482 -2.05827,1.482l-6.85491 0c-2.19695,0 -3.81978,-0.783932 -4.8588,-2.33707 -0.815189,-1.23985 -1.19207,-2.75813 -1.15183,-4.61521l2.31623 0c0,1.36128 0.25185,2.45922 0.761298,3.35452 0.648127,1.16404 1.66738,1.7493 3.03657,1.7493l5.62656 0c0.579506,0 0.865487,-0.356398 0.865487,-1.06488l-0.0661061 -4.03966 2.34425 0c0.0269454,0.981172 0.0395199,2.80232 0.0395199,5.471m-7.76675 -5.46956l-2.12869 0 0 -1.91241 2.12869 -0.000359272 0 1.91277zm3.20363 0l-2.11432 0 0 -1.91241 2.11432 -0.000359272 0 1.91277z"/>
    <path id="_93764496" class="fil0" d="M215.673 56.243c1.34655,-0.0215563 2.48257,-0.377595 3.40446,-1.12452 0.972191,-0.779261 1.46044,-1.76259 1.46044,-2.98052l-0.0452683 -5.39591 2.37982 0 0.0312567 5.18035c0,1.65589 -0.528849,3.00531 -1.58655,4.09247 -1.03866,1.08931 -2.43551,1.68822 -4.18552,1.79924 -0.33556,-0.375799 -0.826685,-0.907162 -1.45865,-1.5711z"/>
    <path id="_92807440" class="fil0" d="M230.905 53.69l-2.72256 0c-0.620822,0 -1.14895,-0.189696 -1.57074,-0.544297 -0.487173,-0.402385 -0.748723,-0.97722 -0.748723,-1.69433l-0.0693395 -10.0647 2.34138 0 0.0876624 9.2588c0,0.692318 0.402385,1.20033 1.02321,1.20033l1.65912 0 0 1.84414z"/>
    <rect id="_92807200" class="fil0" x="230.501" y="51.8493" width="5.11106" height="1.84263"/>
    <rect id="_92507288" class="fil0" x="231.741" y="51.8493" width="5.11106" height="1.84263"/>
    <rect id="_92790568" class="fil0" x="236.431" y="51.8493" width="5.12962" height="1.84263"/>
    <rect id="_92807664" class="fil0" x="241.139" y="51.8493" width="5.11684" height="1.84263"/>
    <rect id="_92808384" class="fil0" x="242.385" y="51.8493" width="5.12019" height="1.84263"/>
    <path id="_92194456" class="fil0" d="M259.158 53.69l-2.28461 0c-0.642019,1.16584 -1.83768,1.72918 -3.58769,1.72918 -1.66056,0 -2.87885,-0.563339 -3.64985,-1.72918l-2.54975 0 0 -1.8445 1.9663 0.000359272c0,-2.20737 1.55206,-3.57368 4.06301,-3.57368 1.30021,0 2.33563,0.376158 3.11561,1.11913 0.730041,0.679384 1.11734,1.50068 1.11734,2.45455l1.80965 0 0 1.84414zm-4.13522 -1.84414c0,-0.589925 -0.210893,-1.06668 -0.582021,-1.42631 -0.337357,-0.322986 -0.752675,-0.473521 -1.22799,-0.473521 -0.474958,0 -0.884528,0.151254 -1.19853,0.473521 -0.320471,0.344542 -0.496514,0.817704 -0.496514,1.42631 0,0.608607 0.197959,1.08285 0.572321,1.44751 0.333764,0.321189 0.75519,0.473521 1.21793,0.473521 0.977939,0.000359272 1.71481,-0.679025 1.71481,-1.92103z"/>
    <rect id="_92659440" class="fil0" x="258.759" y="51.8493" width="5.11684" height="1.84263"/>
    <rect id="_93391032" class="fil0" x="260.015" y="51.8493" width="5.11684" height="1.84263"/>
    <path id="_92501760" class="fil0" d="M281.409 50.8388c-0.0064669,2.036 -1.05123,3.07753 -3.15657,3.11525 -1.3541,0.027664 -2.35072,-0.473162 -2.95214,-1.49817 -0.494359,0.971113 -1.43745,1.47876 -2.82963,1.49817 -1.1141,0.027664 -1.98282,-0.320112 -2.59933,-0.987639l0 0.725371 -5.1552 0 0.0129338 -1.84738 2.84436 0c-0.0251491,-2.56808 -0.0510167,-4.07091 -0.0661061,-4.54767l2.34533 -0.000359272 0 2.75598 0 0.0819141c0.0657468,0.566932 0.264065,1.03363 0.635193,1.35338 0.378673,0.341668 0.843571,0.50837 1.44499,0.50837 0.908959,0 1.35338,-0.431486 1.35338,-1.29518 0,-0.257957 0,-1.40583 -0.0186822,-3.4041l2.32269 -0.000359272c0.0215563,0.528849 0.0215563,1.3929 0.0531723,2.59251 0.0183229,0.702018 0.217,1.23302 0.629445,1.59876 0.371128,0.341668 0.843571,0.50837 1.44751,0.50837 0.90321,0 1.34763,-0.415319 1.34763,-1.27039 0,0.0513759 0,-1.25817 -0.0251491,-3.98253l2.36006 -0.000359272 0.00610763 4.09606z"/>
   </g>
  </g>
 </g>
</svg>
